 <svg xmlns="http://www.w3.org/2000/svg" xmlns:xlink="http://www.w3.org/1999/xlink" height="30px" style="enable-background:new 0 0 110 110;" version="1.0" viewBox="0 0 110 110" width="30px" xml:space="preserve"> <g id="Artboard"></g> <g id="Multicolor"> <circle cx="55" cy="55" r="55" style="fill:#32BEA6;"></circle> <g> <path d="M87,29c0-2.209-1.791-4-4-4H27c-2.209,0-4,1.791-4,4v52c0,2.209,1.791,4,4,4h56 c2.209,0,4-1.791,4-4V29z" style="fill:#F0F1F1;"></path> <path d="M83,25H27c-2.209,0-4,1.791-4,4v52c0,1.219,0.557,2.297,1.417,3.031l58.99-58.99 C83.271,25.027,83.139,25,83,25z" style="fill:#FFFFFF;"></path> <rect height="4" style="fill:#17B198;" width="12" x="49" y="73"></rect> <rect height="4" style="fill:#17B198;" width="12" x="49" y="65"></rect> <rect height="4" style="fill:#F3B607;" width="12" x="49" y="57"></rect> <rect height="4" style="fill:#17B198;" width="12" x="33" y="73"></rect> <rect height="4" style="fill:#17B198;" width="12" x="33" y="65"></rect> <rect height="4" style="fill:#F3B607;" width="12" x="33" y="57"></rect> <rect height="4" style="fill:#F37A10;" width="12" x="33" y="49"></rect> <rect height="4" style="fill:#17B198;" width="12" x="65" y="73"></rect> <rect height="4" style="fill:#17B198;" width="12" x="65" y="65"></rect> <rect height="4" style="fill:#F3B607;" width="12" x="65" y="57"></rect> <rect height="4" style="fill:#F37A10;" width="12" x="49" y="49"></rect> <rect height="4" style="fill:#FA5655;" width="12" x="49" y="41"></rect> <rect height="4" style="fill:#DF2C2C;" width="12" x="49" y="33"></rect> </g> </g> </svg> 